<?xml version="1.0" encoding="UTF-8" standalone="no"?>
<!DOCTYPE svg PUBLIC "-//W3C//DTD SVG 1.1//EN" "http://www.w3.org/Graphics/SVG/1.1/DTD/svg11.dtd">
<svg xmlns="http://www.w3.org/2000/svg" version="1.1" viewBox="0.00 0.00 1448.00 1448.00" width="3600.00" height="3600.00">
<path fill="#ffffff" d="
  M 1074.12 210.47
  C 1056.50 185.19 1040.48 168.42 1016.79 145.60
  C 998.35 127.85 976.09 112.06 953.70 99.67
  C 951.38 98.38 949.26 96.78 946.99 95.64
  C 934.43 89.34 922.15 83.10 908.88 77.92
  C 900.14 74.51 891.25 70.83 882.57 68.08
  Q 856.26 59.75 835.99 56.05
  Q 822.82 53.65 815.53 52.16
  Q 810.05 51.04 804.86 50.81
  C 793.61 50.32 782.43 49.28 771.20 48.53
  Q 766.42 48.22 758.57 46.93
  Q 747.83 45.17 726.50 45.27
  Q 713.17 45.34 695.24 47.38
  C 679.03 49.23 663.62 49.70 647.78 50.71
  C 635.57 51.48 623.12 53.73 610.65 55.40
  C 579.94 59.51 549.36 67.03 519.76 75.28
  C 494.24 82.39 468.70 92.16 443.96 102.58
  Q 434.58 106.53 425.84 111.04
  C 393.29 127.84 363.43 146.44 336.75 171.64
  C 317.10 190.20 299.62 207.57 284.50 229.68
  Q 248.35 282.50 231.77 344.09
  C 227.47 360.07 223.78 374.96 221.54 390.81
  Q 219.73 403.66 219.27 406.66
  C 217.28 419.75 216.85 431.09 216.01 443.35
  C 214.06 471.71 214.09 500.71 216.05 529.07
  C 217.21 545.76 217.42 562.47 219.86 579.06
  C 221.69 591.45 221.94 604.17 224.31 616.36
  Q 228.17 636.21 231.08 656.23
  C 232.05 662.87 234.12 670.57 235.38 678.43
  Q 237.60 692.29 245.09 723.04
  C 254.89 763.22 265.82 803.41 278.67 842.73
  C 281.37 851.00 283.85 859.91 286.41 867.61
  Q 317.62 961.37 328.75 995.25
  Q 331.52 1003.66 334.29 1013.86
  C 337.35 1025.07 342.17 1040.49 344.89 1054.20
  C 345.52 1057.36 347.14 1061.18 347.97 1065.26
  C 351.61 1083.21 355.42 1101.18 357.80 1119.41
  C 360.86 1142.79 364.95 1166.78 365.84 1190.33
  C 367.04 1222.44 366.07 1249.93 361.74 1277.75
  C 359.41 1292.69 357.68 1306.95 355.05 1319.32
  Q 344.77 1367.78 321.96 1411.19
  C 320.26 1414.41 316.86 1419.92 312.95 1420.89
  C 303.09 1423.33 286.75 1422.98 285.35 1409.89
  C 284.77 1404.39 284.90 1398.44 287.75 1393.53
  C 303.61 1366.22 312.14 1334.80 319.24 1304.24
  C 321.05 1296.43 321.68 1287.35 323.08 1278.86
  Q 324.22 1271.94 324.58 1267.59
  C 327.30 1234.65 327.04 1200.98 325.70 1167.98
  C 325.07 1152.46 322.50 1136.35 320.96 1120.51
  C 319.55 1106.03 314.59 1088.73 312.72 1077.75
  Q 311.42 1070.17 310.26 1065.68
  C 305.96 1049.00 302.35 1032.72 297.76 1017.75
  Q 287.79 985.30 276.52 953.28
  C 268.82 931.38 261.91 909.06 254.57 887.02
  Q 231.03 816.41 213.31 744.13
  C 211.78 737.89 209.78 731.34 208.59 725.04
  Q 207.35 718.40 206.71 715.90
  Q 200.64 691.78 196.59 667.25
  C 196.07 664.13 194.70 659.61 194.28 655.25
  C 193.59 648.03 190.97 637.91 190.18 629.07
  C 189.67 623.33 188.01 617.39 187.38 612.30
  Q 186.71 606.91 186.51 604.25
  Q 184.79 582.24 181.79 560.37
  C 180.56 551.39 181.12 542.02 179.47 532.94
  C 175.32 510.00 176.37 488.31 176.97 463.41
  C 177.08 458.97 177.50 453.22 178.62 448.76
  C 180.75 440.27 180.26 431.46 181.30 422.83
  Q 183.56 404.24 185.96 385.67
  Q 187.22 375.91 189.38 365.98
  C 191.77 354.99 193.99 343.59 197.05 333.13
  C 206.48 300.82 218.18 270.75 234.17 241.28
  C 248.44 214.96 266.95 190.32 287.17 168.31
  Q 293.82 161.06 301.28 154.14
  Q 342.69 115.69 392.04 89.03
  C 411.07 78.75 431.42 68.78 452.00 60.79
  Q 494.34 44.34 538.44 33.37
  C 543.71 32.06 550.66 30.77 556.74 29.20
  C 565.17 27.01 573.06 26.64 581.26 24.77
  Q 604.98 19.36 628.43 17.40
  Q 634.05 16.93 640.31 15.67
  C 652.54 13.22 665.41 13.60 677.90 12.71
  C 710.21 10.43 743.18 9.90 775.48 12.60
  C 785.86 13.47 797.89 13.27 807.89 15.98
  C 816.63 18.34 825.84 17.81 834.83 19.78
  C 855.65 24.32 879.85 29.75 900.70 36.89
  C 925.01 45.22 948.82 54.82 971.94 67.73
  Q 1034.91 102.89 1080.02 155.73
  C 1094.19 172.33 1109.15 193.09 1121.21 213.51
  Q 1145.23 254.18 1160.58 294.68
  C 1176.74 337.28 1187.26 381.37 1194.00 426.50
  Q 1195.25 434.81 1195.16 456.44
  C 1195.12 464.92 1200.84 468.59 1195.93 477.67
  A 1.80 1.76 59.0 0 0 1195.72 478.55
  C 1196.20 494.07 1188.72 509.45 1178.11 520.38
  C 1164.74 534.16 1146.22 539.96 1141.73 560.97
  C 1138.22 577.39 1150.70 592.40 1161.55 602.95
  C 1172.97 614.06 1184.80 625.12 1195.25 636.87
  C 1208.71 651.99 1220.07 666.85 1232.30 681.95
  Q 1237.03 687.80 1252.01 711.99
  Q 1259.69 724.39 1267.56 743.28
  C 1270.43 750.16 1272.38 759.29 1271.83 766.65
  C 1269.16 802.38 1245.63 831.35 1210.04 837.47
  C 1201.32 838.97 1189.40 840.80 1183.30 842.60
  Q 1168.49 846.96 1164.22 861.69
  Q 1162.78 866.65 1162.77 877.10
  Q 1162.72 960.04 1162.69 1043.00
  Q 1162.69 1053.82 1161.07 1064.51
  C 1160.71 1066.91 1159.00 1070.03 1158.98 1072.25
  C 1158.74 1090.54 1147.19 1106.60 1133.30 1118.22
  C 1124.90 1125.24 1115.80 1128.88 1105.64 1132.53
  C 1095.44 1136.20 1086.81 1135.71 1076.29 1135.73
  Q 979.02 1135.87 881.75 1135.60
  Q 870.92 1135.57 866.02 1137.02
  C 855.09 1140.25 845.44 1149.17 842.27 1160.33
  Q 841.04 1164.65 841.08 1174.93
  Q 841.40 1261.59 841.20 1348.25
  C 841.17 1364.42 835.10 1379.21 815.28 1375.51
  C 807.13 1373.98 802.78 1362.37 802.45 1355.50
  C 801.42 1333.81 802.47 1306.28 802.48 1279.93
  Q 802.51 1227.22 802.51 1174.50
  C 802.51 1136.16 825.72 1106.04 863.78 1097.50
  C 873.08 1095.41 883.23 1095.02 894.21 1095.02
  Q 979.32 1094.98 1064.44 1095.01
  C 1070.97 1095.01 1083.17 1095.58 1092.58 1094.97
  C 1102.05 1094.35 1109.56 1089.89 1115.28 1082.59
  C 1118.75 1078.15 1120.78 1075.57 1121.71 1070.49
  Q 1125.89 1047.54 1126.01 1026.69
  Q 1126.42 952.46 1126.20 878.23
  C 1126.19 872.44 1125.35 863.92 1126.53 856.50
  C 1129.20 839.69 1142.12 822.62 1155.67 813.43
  C 1163.77 807.93 1179.42 800.57 1190.24 801.04
  C 1202.19 801.57 1212.41 797.90 1221.79 790.26
  C 1230.56 783.12 1238.09 772.90 1236.23 761.50
  C 1235.07 754.42 1231.92 747.45 1227.80 740.73
  C 1212.63 715.94 1196.06 697.03 1178.48 676.10
  C 1157.33 650.92 1129.53 628.56 1112.22 603.04
  Q 1108.39 597.38 1105.70 590.12
  C 1102.22 580.77 1104.16 569.25 1103.60 559.12
  C 1102.70 542.99 1108.68 529.26 1119.11 517.19
  C 1129.13 505.59 1144.03 498.75 1153.86 486.52
  C 1161.80 476.64 1158.78 463.34 1158.19 452.00
  Q 1157.62 440.93 1155.81 429.99
  C 1153.98 418.86 1151.37 407.70 1149.99 396.52
  C 1149.05 388.90 1147.58 382.74 1145.75 375.82
  C 1143.88 368.76 1141.95 360.35 1139.80 352.70
  Q 1121.05 286.06 1085.06 227.19
  Q 1079.91 218.78 1074.12 210.47
  Z"
/>
<path fill="#ffffff" d="
  M 858.27 263.61
  C 887.95 290.40 912.00 319.20 930.18 354.14
  C 944.05 380.76 953.41 409.77 957.47 438.34
  C 960.15 457.16 959.40 475.37 958.97 495.50
  Q 958.83 501.85 958.34 504.42
  C 956.30 514.97 955.08 526.44 952.60 536.08
  C 947.98 554.09 941.79 572.17 933.48 588.84
  C 903.75 648.48 852.99 696.26 788.26 716.99
  C 780.21 719.56 771.19 721.48 762.58 723.39
  C 743.34 727.65 725.50 729.40 706.50 726.25
  C 676.99 721.35 651.15 714.96 625.86 701.06
  C 590.47 681.60 564.57 656.87 544.57 622.29
  C 535.69 606.93 529.62 590.97 525.80 573.85
  C 524.80 569.39 524.14 563.53 522.99 558.38
  C 522.47 556.07 522.32 552.91 521.53 549.75
  C 520.52 545.71 520.32 538.05 520.87 532.69
  C 521.14 530.17 520.91 527.51 521.26 525.11
  C 522.56 516.08 523.27 506.51 525.00 497.82
  C 526.10 492.32 527.87 487.84 529.15 482.86
  C 530.26 478.50 532.12 475.02 533.73 471.01
  C 538.09 460.10 544.62 449.22 550.21 439.95
  C 566.66 412.69 590.59 393.52 619.43 380.18
  Q 630.77 374.94 641.63 372.22
  C 647.62 370.72 654.42 370.19 660.91 368.33
  Q 665.00 367.15 670.76 367.06
  Q 690.50 366.76 709.76 371.21
  C 723.33 374.35 738.26 379.33 748.66 385.61
  Q 779.92 404.45 798.54 434.71
  C 806.32 447.35 810.63 462.53 813.20 477.76
  C 815.41 490.91 814.48 503.96 812.14 516.98
  C 811.26 521.88 810.90 527.01 809.54 531.57
  C 798.28 569.08 768.98 598.61 730.26 606.82
  Q 725.91 607.74 719.93 607.61
  C 709.26 607.37 696.72 607.92 687.42 606.21
  Q 675.33 603.98 664.23 597.75
  Q 630.65 578.91 617.85 543.57
  C 613.62 531.88 613.73 515.74 616.00 504.26
  Q 618.49 491.68 625.82 479.72
  C 636.32 462.58 649.23 450.06 668.80 443.65
  C 672.76 442.35 675.88 441.02 680.18 440.93
  Q 684.09 440.85 687.99 440.80
  C 709.04 440.49 724.32 448.44 738.76 463.09
  C 747.65 472.11 755.46 484.54 757.16 497.32
  C 758.14 504.66 757.43 514.46 754.82 521.86
  C 748.23 540.54 733.48 561.99 710.41 555.90
  C 705.07 554.49 701.65 548.78 699.86 544.01
  C 697.76 538.43 699.12 534.36 702.84 530.07
  Q 709.67 522.19 717.36 515.08
  C 718.37 514.15 719.09 513.46 719.44 512.02
  C 722.15 500.79 717.53 491.92 708.99 485.32
  C 701.20 479.30 689.22 477.47 680.05 479.56
  C 672.73 481.24 666.13 487.20 661.24 493.26
  C 648.56 508.98 646.98 531.53 659.44 548.06
  C 673.94 567.29 697.20 578.61 721.20 572.30
  Q 757.16 562.84 772.88 530.96
  C 788.36 499.58 779.71 465.16 756.70 440.29
  Q 732.22 413.85 697.15 406.59
  Q 696.96 406.55 688.45 404.49
  C 677.85 401.92 667.82 404.86 656.38 407.79
  C 628.24 414.98 601.43 431.88 585.20 456.18
  C 572.50 475.20 560.85 498.11 561.02 521.56
  Q 561.20 545.86 560.98 556.00
  C 560.71 569.14 565.12 578.94 570.99 592.51
  C 576.07 604.24 582.21 614.44 590.81 624.46
  Q 601.69 637.15 614.07 648.43
  C 633.89 666.48 658.19 678.13 684.11 685.53
  Q 691.67 687.68 701.58 688.87
  C 715.69 690.55 728.07 691.72 742.06 690.01
  C 752.23 688.77 762.49 687.46 772.17 684.95
  C 793.87 679.32 810.85 670.03 830.41 656.64
  C 860.96 635.74 886.33 603.90 902.99 569.51
  C 909.84 555.38 913.86 541.42 917.73 525.75
  Q 921.58 510.16 922.41 497.75
  C 923.79 477.31 924.25 455.33 920.20 435.17
  C 912.73 397.99 897.22 366.15 874.53 335.22
  Q 871.74 331.41 861.88 321.11
  C 843.24 301.64 829.58 287.53 813.03 275.94
  C 770.97 246.47 722.57 229.03 671.32 226.45
  Q 662.54 226.00 641.03 226.25
  C 635.84 226.31 630.87 227.10 625.75 227.22
  Q 617.59 227.41 609.49 228.52
  Q 571.75 233.69 537.27 249.86
  Q 527.89 254.25 518.53 258.68
  C 515.93 259.91 511.13 261.80 508.24 261.91
  C 498.63 262.28 489.95 256.58 488.46 246.88
  C 486.01 230.90 506.14 221.41 518.09 215.92
  Q 535.71 207.83 541.21 205.74
  Q 555.08 200.47 575.11 195.25
  C 588.82 191.68 603.56 189.73 617.86 187.46
  Q 623.68 186.54 630.68 186.29
  C 648.95 185.64 666.39 184.87 685.62 188.18
  C 694.88 189.77 703.91 190.19 712.32 191.91
  C 765.85 202.86 817.70 226.98 858.27 263.61
  Z"
/>
</svg>
